<svg width="76" height="76" viewBox="0 0 76 76" fill="none" xmlns="http://www.w3.org/2000/svg">
<path d="M69.3203 11.2812H6.67969C2.98909 11.2812 0 14.2889 0 17.9609V58.0391C0 61.7329 3.01105 64.7188 6.67969 64.7188H69.3203C72.98 64.7188 76 61.7455 76 58.0391V17.9609C76 14.2954 73.0228 11.2812 69.3203 11.2812ZM68.3849 15.7344C67.0201 17.0918 43.5342 40.4541 42.7233 41.2607C41.4616 42.5224 39.7842 43.2171 38 43.2171C36.2158 43.2171 34.5384 42.5223 33.2726 41.2566C32.7272 40.714 9.50045 17.6097 7.61514 15.7344H68.3849ZM4.45312 57.1327V18.8701L23.6963 38.0119L4.45312 57.1327ZM7.61796 60.2656L26.8535 41.1524L30.1279 44.4095C32.2307 46.5123 35.0264 47.6703 38 47.6703C40.9736 47.6703 43.7693 46.5123 45.8679 44.4137L49.1465 41.1524L68.382 60.2656H7.61796ZM71.5469 57.1327L52.3037 38.0119L71.5469 18.8701V57.1327Z" fill="white"/>
</svg>
