<?xml version="1.0" encoding="UTF-8" standalone="no"?>
<!-- Generator: Adobe Illustrator 19.0.0, SVG Export Plug-In . SVG Version: 6.00 Build 0)  -->

<svg
   version="1.1"
   id="Capa_1"
   x="0px"
   y="0px"
   viewBox="0 0 512 512"
   style="enable-background:new 0 0 512 512;"
   xml:space="preserve"
   sodipodi:docname="external_icon.svg"
   inkscape:version="1.1 (ce6663b3b7, 2021-05-25)"
   xmlns:inkscape="http://www.inkscape.org/namespaces/inkscape"
   xmlns:sodipodi="http://sodipodi.sourceforge.net/DTD/sodipodi-0.dtd"
   xmlns="http://www.w3.org/2000/svg"
   xmlns:svg="http://www.w3.org/2000/svg"><defs
   id="defs53" /><sodipodi:namedview
   id="namedview51"
   pagecolor="#ffffff"
   bordercolor="#666666"
   borderopacity="1.0"
   inkscape:pageshadow="2"
   inkscape:pageopacity="0.0"
   inkscape:pagecheckerboard="0"
   showgrid="false"
   inkscape:zoom="0.56623785"
   inkscape:cx="-130.68713"
   inkscape:cy="92.717221"
   inkscape:window-width="1848"
   inkscape:window-height="1009"
   inkscape:window-x="1992"
   inkscape:window-y="34"
   inkscape:window-maximized="1"
   inkscape:current-layer="Capa_1" />
<g
   id="g6"
   style="fill:#ffffff">
	<g
   id="g4"
   style="fill:#ffffff">
		<path
   d="M492.703,0H353.126c-10.658,0-19.296,8.638-19.296,19.297c0,10.658,8.638,19.296,19.296,19.296h120.281v120.281    c0,10.658,8.638,19.296,19.296,19.296c10.658,0,19.297-8.638,19.297-19.296V19.297C512,8.638,503.362,0,492.703,0z"
   id="path2"
   style="fill:#ffffff" />
	</g>
</g>
<g
   id="g12">
	<g
   id="g10">
		<path
   d="M506.346,5.654c-7.538-7.539-19.747-7.539-27.285,0L203.764,280.95c-7.539,7.532-7.539,19.753,0,27.285    c3.763,3.769,8.703,5.654,13.643,5.654c4.933,0,9.873-1.885,13.643-5.654L506.346,32.939    C513.885,25.407,513.885,13.186,506.346,5.654z"
   id="path8"
   style="fill:#ffffff" />
	</g>
</g>
<g
   id="g18"
   style="fill:#ffffff">
	<g
   id="g16"
   style="fill:#ffffff">
		<path
   d="M427.096,239.92c-10.658,0-19.297,8.638-19.297,19.296v214.191H38.593V104.201h214.191    c10.658,0,19.296-8.638,19.296-19.296s-8.638-19.297-19.296-19.297H19.297C8.638,65.608,0,74.246,0,84.905v407.799    C0,503.362,8.638,512,19.297,512h407.799c10.664,0,19.296-8.638,19.296-19.297V259.216    C446.392,248.558,437.754,239.92,427.096,239.92z"
   id="path14"
   style="fill:#ffffff" />
	</g>
</g>
<g
   id="g20">
</g>
<g
   id="g22">
</g>
<g
   id="g24">
</g>
<g
   id="g26">
</g>
<g
   id="g28">
</g>
<g
   id="g30">
</g>
<g
   id="g32">
</g>
<g
   id="g34">
</g>
<g
   id="g36">
</g>
<g
   id="g38">
</g>
<g
   id="g40">
</g>
<g
   id="g42">
</g>
<g
   id="g44">
</g>
<g
   id="g46">
</g>
<g
   id="g48">
</g>
</svg>
