<svg width="74" height="74" viewBox="0 0 74 74" fill="none" xmlns="http://www.w3.org/2000/svg">
<path d="M37 3C16.5575 3 0 19.28 0 39.3587C0 55.4259 10.6005 69.0512 25.2987 73.855C27.1487 74.1973 27.8271 73.0718 27.8271 72.1068C27.8271 71.2434 27.7962 68.9556 27.7808 65.9247C17.4887 68.1169 15.318 61.0468 15.318 61.0468C13.6345 56.8504 11.2017 55.7281 11.2017 55.7281C7.85017 53.4742 11.4607 53.5204 11.4607 53.5204C15.1762 53.7733 17.1279 57.2667 17.1279 57.2667C20.4271 62.8259 25.789 61.2195 27.9042 60.2914C28.2372 57.9388 29.1899 56.3386 30.2475 55.429C22.0304 54.5194 13.394 51.3929 13.394 37.4624C13.394 33.4942 14.8277 30.2505 17.2019 27.7068C16.7857 26.7879 15.5369 23.091 17.5257 18.0837C17.5257 18.0837 20.6244 17.1093 27.7007 21.8114C30.6607 21.0036 33.8057 20.6028 36.9507 20.5843C40.0957 20.6028 43.2407 21.0036 46.2007 21.8114C53.2307 17.1093 56.3294 18.0837 56.3294 18.0837C58.3182 23.091 57.0694 26.7879 56.6994 27.7068C59.0582 30.2505 60.4919 33.4942 60.4919 37.4624C60.4919 51.4299 51.8432 54.504 43.6107 55.3982C44.9057 56.4897 46.1082 58.7189 46.1082 62.126C46.1082 66.9915 46.0619 70.9012 46.0619 72.0821C46.0619 73.0349 46.7094 74.1726 48.6057 73.8088C63.4087 69.0358 74 55.4013 74 39.3587C74 19.28 57.4332 3 37 3Z" fill="white"/>
</svg>
