<svg width="54" height="54" viewBox="0 0 54 54" fill="none" xmlns="http://www.w3.org/2000/svg">
<path d="M52.5498 23.4874C52.5482 23.4862 52.5469 23.4845 52.5457 23.4833L30.5157 1.45638C29.5767 0.517044 28.3283 0 27.0003 0C25.6723 0 24.4239 0.517044 23.4845 1.45638L1.46605 23.4722C1.45864 23.4796 1.45081 23.4874 1.4438 23.4948C-0.484491 25.434 -0.481194 28.5804 1.45328 30.5147C2.33708 31.3988 3.50395 31.9105 4.75199 31.9644C4.80308 31.9694 4.85417 31.9719 4.90567 31.9719H5.78329V48.1819C5.78329 51.3901 8.39391 54 11.6024 54H20.2212C21.0951 54 21.8034 53.2914 21.8034 52.418V39.709C21.8034 38.2452 22.9946 37.0546 24.4585 37.0546H29.5421C31.0061 37.0546 32.1968 38.2452 32.1968 39.709V52.418C32.1968 53.2914 32.9051 54 33.779 54H42.3978C45.6067 54 48.2169 51.3901 48.2169 48.1819V31.9719H49.0311C50.3586 31.9719 51.6071 31.4548 52.5469 30.5151C54.4835 28.5779 54.4843 25.4258 52.5498 23.4874ZM50.3092 28.278C49.9676 28.6195 49.5136 28.8078 49.0311 28.8078H46.6347C45.7608 28.8078 45.0525 29.516 45.0525 30.3898V48.1819C45.0525 49.6453 43.8618 50.8359 42.3978 50.8359H35.3612V39.709C35.3612 36.5008 32.751 33.8905 29.5421 33.8905H24.4585C21.2496 33.8905 18.639 36.5008 18.639 39.709V50.8359H11.6024C10.1389 50.8359 8.94768 49.6453 8.94768 48.1819V30.3898C8.94768 29.516 8.2394 28.8078 7.36548 28.8078H5.01033C4.98561 28.8062 4.9613 28.8049 4.93616 28.8045C4.4648 28.7963 4.02269 28.6092 3.69142 28.2776C2.98685 27.5731 2.98685 26.4265 3.69142 25.7216C3.69183 25.7216 3.69183 25.7212 3.69225 25.7208L3.69348 25.7195L25.7226 3.69347C26.0638 3.35193 26.5174 3.16406 27.0003 3.16406C27.4828 3.16406 27.9364 3.35193 28.278 3.69347L50.3022 25.715C50.3055 25.7183 50.3092 25.7216 50.3125 25.7249C51.0134 26.4306 51.0121 27.5747 50.3092 28.278Z" fill="url(#paint0_linear)"/>
<defs>
<linearGradient id="paint0_linear" x1="27" y1="0" x2="27" y2="54" gradientUnits="userSpaceOnUse">
<stop stop-color="#00F0FF"/>
<stop offset="1" stop-color="#4F55D8"/>
</linearGradient>
</defs>
</svg>
