<svg width="70" height="70" viewBox="0 0 70 70" fill="none" xmlns="http://www.w3.org/2000/svg">
<path d="M69.9825 70V69.9971H70V44.3246C70 31.7654 67.2963 22.0908 52.6138 22.0908C45.5554 22.0908 40.8188 25.9642 38.885 29.6362H38.6808V23.2633H24.7596V69.9971H39.2554V46.8562C39.2554 40.7633 40.4104 34.8717 47.9558 34.8717C55.3904 34.8717 55.5013 41.825 55.5013 47.2471V70H69.9825Z" fill="white"/>
<path d="M1.15503 23.2662H15.6684V70H1.15503V23.2662Z" fill="white"/>
<path d="M8.40583 0C3.76542 0 0 3.76542 0 8.40583C0 13.0463 3.76542 16.8904 8.40583 16.8904C13.0463 16.8904 16.8117 13.0463 16.8117 8.40583C16.8088 3.76542 13.0433 0 8.40583 0V0Z" fill="white"/>
</svg>
