<svg width="72" height="72" viewBox="0 0 72 72" fill="none" xmlns="http://www.w3.org/2000/svg">
<g clip-path="url(#clip0)">
<path d="M69.9273 53.9748L59.5209 43.5639C58.1233 42.1735 56.2519 41.4075 54.2521 41.4075C52.171 41.4075 50.2061 42.2269 48.7204 43.7134L44.6696 47.7633C41.5219 46.0138 37.3383 43.6074 32.9947 39.2638C28.6561 34.9238 26.2495 30.7524 24.491 27.5877L28.5456 23.536C31.5602 20.5152 31.6219 15.6688 28.6835 12.7332L18.2792 2.32856C16.8856 0.931029 15.0142 0.161377 13.0093 0.161377C10.9747 0.161377 9.04997 0.94473 7.57291 2.37055C6.67935 3.09017 2.19518 7.04863 0.523923 15.2122C-1.81601 26.6387 3.56024 37.6328 19.0808 53.1595C36.4185 70.4919 51.2197 71.8391 55.3432 71.8391C56.2016 71.8391 56.7196 71.7861 56.8578 71.77C64.9436 70.8222 67.8387 67.2313 69.9526 64.6093C72.6916 61.2111 72.6821 56.7397 69.9273 53.9748ZM66.4742 61.805C64.4873 64.2695 62.6108 66.5969 56.338 67.3323C56.3347 67.3326 55.9916 67.371 55.3432 67.371C51.654 67.371 38.3632 66.1182 22.2401 50.0002C7.92736 35.6815 2.90377 25.8622 4.90087 16.1081C6.35857 8.98765 10.2286 5.96117 10.379 5.8462L10.5124 5.74761L10.6295 5.63026C11.2755 4.98481 12.1205 4.62917 13.009 4.62917C13.818 4.62917 14.5662 4.93239 15.1178 5.4858L25.5245 15.8928C26.7219 17.089 26.6581 19.1018 25.3842 20.3784L20.7988 24.96L20.7234 25.039C19.5284 26.3552 19.669 28.1339 20.3273 29.2923C22.2267 32.72 24.8284 37.4144 29.8347 42.4222C34.8244 47.4119 39.512 50.0115 42.9302 51.9074C43.2724 52.0995 43.9789 52.4218 44.8632 52.4218C45.9075 52.4218 46.8663 51.9798 47.5761 51.1741L51.8794 46.8719C52.5219 46.2291 53.3642 45.875 54.2515 45.875C55.0623 45.875 55.8144 46.1791 56.3648 46.7265L66.7644 57.1305C68.0853 58.4563 67.54 60.4832 66.4742 61.805Z" fill="white"/>
<path d="M43.6197 11.1078C47.4581 11.5495 51.9777 13.8745 55.1338 17.0309C58.3193 20.2164 60.65 24.7819 61.0709 28.662C61.1951 29.8067 62.1631 30.655 63.289 30.655C63.3694 30.655 63.451 30.6505 63.5326 30.6419C64.7592 30.5087 65.6456 29.4067 65.5125 28.1801C64.9802 23.2754 62.2137 17.7928 58.2931 13.8718C54.4091 9.98754 48.9825 7.22793 44.1305 6.66946C42.9054 6.52738 41.7971 7.40784 41.6559 8.63321C41.5148 9.85857 42.3937 10.9666 43.6197 11.1078Z" fill="white"/>
<path d="M41.5326 20.4657C43.6086 20.7049 46.4817 22.2448 48.3639 24.1269C50.2621 26.0254 51.805 28.9259 52.0322 31.0243C52.1564 32.1693 53.1244 33.0175 54.2503 33.0175C54.3308 33.0175 54.4121 33.0131 54.4937 33.0044C55.7202 32.8713 56.6069 31.7692 56.4738 30.5427C56.0854 26.9601 53.707 23.1521 51.5226 20.9676C49.3578 18.8025 45.587 16.4355 42.0434 16.0271C40.8166 15.8844 39.7097 16.7652 39.5686 17.9906C39.4277 19.2162 40.3069 20.3245 41.5326 20.4657Z" fill="white"/>
</g>
<defs>
<clipPath id="clip0">
<rect width="72" height="72" fill="white"/>
</clipPath>
</defs>
</svg>
