<svg width="54" height="54" viewBox="0 0 54 54" fill="none" xmlns="http://www.w3.org/2000/svg">
<g clip-path="url(#clip0)">
<rect width="54" height="54" fill="url(#paint0_linear)"/>
<path d="M50.625 13.5H3.375C1.51425 13.5 0 11.9858 0 10.125V3.375C0 1.51425 1.51425 0 3.375 0H50.625C52.4857 0 54 1.51425 54 3.375V10.125C54 11.9858 52.4857 13.5 50.625 13.5ZM3.375 2.25C2.75625 2.25 2.25 2.754 2.25 3.375V10.125C2.25 10.746 2.75625 11.25 3.375 11.25H50.625C51.2438 11.25 51.75 10.746 51.75 10.125V3.375C51.75 2.754 51.2438 2.25 50.625 2.25H3.375Z" fill="url(#paint1_linear)"/>
<path d="M52.875 20.25H30.375C29.754 20.25 29.25 19.746 29.25 19.125C29.25 18.504 29.754 18 30.375 18H52.875C53.496 18 54 18.504 54 19.125C54 19.746 53.496 20.25 52.875 20.25Z" fill="url(#paint2_linear)"/>
<path d="M52.875 27H30.375C29.754 27 29.25 26.496 29.25 25.875C29.25 25.254 29.754 24.75 30.375 24.75H52.875C53.496 24.75 54 25.254 54 25.875C54 26.496 53.496 27 52.875 27Z" fill="url(#paint3_linear)"/>
<path d="M52.875 33.75H30.375C29.754 33.75 29.25 33.246 29.25 32.625C29.25 32.004 29.754 31.5 30.375 31.5H52.875C53.496 31.5 54 32.004 54 32.625C54 33.246 53.496 33.75 52.875 33.75Z" fill="url(#paint4_linear)"/>
<path d="M52.875 40.5H30.375C29.754 40.5 29.25 39.996 29.25 39.375C29.25 38.754 29.754 38.25 30.375 38.25H52.875C53.496 38.25 54 38.754 54 39.375C54 39.996 53.496 40.5 52.875 40.5Z" fill="url(#paint5_linear)"/>
<path d="M52.875 47.25H30.375C29.754 47.25 29.25 46.746 29.25 46.125C29.25 45.504 29.754 45 30.375 45H52.875C53.496 45 54 45.504 54 46.125C54 46.746 53.496 47.25 52.875 47.25Z" fill="url(#paint6_linear)"/>
<path d="M21.375 33.75H3.375C1.51425 33.75 0 32.2358 0 30.375V21.375C0 19.5143 1.51425 18 3.375 18H21.375C23.2358 18 24.75 19.5143 24.75 21.375V30.375C24.75 32.2358 23.2358 33.75 21.375 33.75ZM3.375 20.25C2.75625 20.25 2.25 20.754 2.25 21.375V30.375C2.25 30.996 2.75625 31.5 3.375 31.5H21.375C21.9938 31.5 22.5 30.996 22.5 30.375V21.375C22.5 20.754 21.9938 20.25 21.375 20.25H3.375Z" fill="url(#paint7_linear)"/>
<path d="M21.375 54H3.375C1.51425 54 0 52.4858 0 50.625V41.625C0 39.7643 1.51425 38.25 3.375 38.25H21.375C23.2358 38.25 24.75 39.7643 24.75 41.625V50.625C24.75 52.4858 23.2358 54 21.375 54ZM3.375 40.5C2.75625 40.5 2.25 41.004 2.25 41.625V50.625C2.25 51.246 2.75625 51.75 3.375 51.75H21.375C21.9938 51.75 22.5 51.246 22.5 50.625V41.625C22.5 41.004 21.9938 40.5 21.375 40.5H3.375Z" fill="url(#paint8_linear)"/>
<path d="M52.875 54H30.375C29.754 54 29.25 53.496 29.25 52.875C29.25 52.254 29.754 51.75 30.375 51.75H52.875C53.496 51.75 54 52.254 54 52.875C54 53.496 53.496 54 52.875 54Z" fill="url(#paint9_linear)"/>
</g>
<defs>
<linearGradient id="paint0_linear" x1="0" y1="0" x2="54" y2="54" gradientUnits="userSpaceOnUse">
<stop stop-color="white"/>
<stop offset="1" stop-color="white" stop-opacity="0"/>
</linearGradient>
<linearGradient id="paint1_linear" x1="27" y1="0" x2="27" y2="13.5" gradientUnits="userSpaceOnUse">
<stop stop-color="#00F0FF"/>
<stop offset="1" stop-color="#4F55D8"/>
</linearGradient>
<linearGradient id="paint2_linear" x1="41.625" y1="18" x2="41.625" y2="20.25" gradientUnits="userSpaceOnUse">
<stop stop-color="#00F0FF"/>
<stop offset="1" stop-color="#4F55D8"/>
</linearGradient>
<linearGradient id="paint3_linear" x1="41.625" y1="24.75" x2="41.625" y2="27" gradientUnits="userSpaceOnUse">
<stop stop-color="#00F0FF"/>
<stop offset="1" stop-color="#4F55D8"/>
</linearGradient>
<linearGradient id="paint4_linear" x1="41.625" y1="31.5" x2="41.625" y2="33.75" gradientUnits="userSpaceOnUse">
<stop stop-color="#00F0FF"/>
<stop offset="1" stop-color="#4F55D8"/>
</linearGradient>
<linearGradient id="paint5_linear" x1="41.625" y1="38.25" x2="41.625" y2="40.5" gradientUnits="userSpaceOnUse">
<stop stop-color="#00F0FF"/>
<stop offset="1" stop-color="#4F55D8"/>
</linearGradient>
<linearGradient id="paint6_linear" x1="41.625" y1="45" x2="41.625" y2="47.25" gradientUnits="userSpaceOnUse">
<stop stop-color="#00F0FF"/>
<stop offset="1" stop-color="#4F55D8"/>
</linearGradient>
<linearGradient id="paint7_linear" x1="12.375" y1="18" x2="12.375" y2="33.75" gradientUnits="userSpaceOnUse">
<stop stop-color="#00F0FF"/>
<stop offset="1" stop-color="#4F55D8"/>
</linearGradient>
<linearGradient id="paint8_linear" x1="12.375" y1="38.25" x2="12.375" y2="54" gradientUnits="userSpaceOnUse">
<stop stop-color="#00F0FF"/>
<stop offset="1" stop-color="#4F55D8"/>
</linearGradient>
<linearGradient id="paint9_linear" x1="41.625" y1="51.75" x2="41.625" y2="54" gradientUnits="userSpaceOnUse">
<stop stop-color="#00F0FF"/>
<stop offset="1" stop-color="#4F55D8"/>
</linearGradient>
<clipPath id="clip0">
<rect width="54" height="54" fill="white"/>
</clipPath>
</defs>
</svg>
